<svg xmlns="http://www.w3.org/2000/svg" viewBox="0 0 64 64" width="64" height="64">
  <!-- Shield shape -->
  <path
    d="M32 4 L56 14 L56 30 C56 44 44 54 32 60 C20 54 8 44 8 30 L8 14 Z"
    fill="#4F46E5"
    stroke="#1E3A8A"
    stroke-width="1.5"
  />

  <!-- Inner shield highlight -->
  <path
    d="M32 8 L52 16 L52 30 C52 42 42 50 32 56 C22 50 12 42 12 30 L12 16 Z"
    fill="none"
    stroke="#6366F1"
    stroke-width="0.5"
    opacity="0.5"
  />

  <!-- Signal waves (3 arcs) -->
  <!-- Inner wave -->
  <path
    d="M26 32 Q32 26 38 32"
    fill="none"
    stroke="#14B8A6"
    stroke-width="2.5"
    stroke-linecap="round"
  />

  <!-- Middle wave -->
  <path
    d="M22 36 Q32 24 42 36"
    fill="none"
    stroke="#14B8A6"
    stroke-width="2.5"
    stroke-linecap="round"
  />

  <!-- Outer wave -->
  <path
    d="M18 40 Q32 22 46 40"
    fill="none"
    stroke="#14B8A6"
    stroke-width="2.5"
    stroke-linecap="round"
  />

  <!-- Center dot -->
  <circle cx="32" cy="38" r="3" fill="#14B8A6"/>
</svg>
